<svg id="Layer_1" data-name="Layer 1" xmlns="http://www.w3.org/2000/svg" viewBox="0 0 309.4189 74.1064"><defs><style>.cls-1{fill:#fff;}.cls-1,.cls-2{fill-rule:evenodd;}.cls-2{fill:#2cb34a;}</style></defs><title>logo4</title><path class="cls-1" d="M172.9907,52.3848q.0336-4.8325-.2261-7.9981a17.592,17.592,0,0,0-1.1841-5.3711,12.9262,12.9262,0,0,0-2.9033-4.1572,13.93,13.93,0,0,0-4.6353-3.085,15.7551,15.7551,0,0,0-5.99-1.1084,15.9593,15.9593,0,0,0-6.0176,1.1084,13.8894,13.8894,0,0,0-4.667,3.085,12.6953,12.6953,0,0,0-2.8872,4.1572,17.6084,17.6084,0,0,0-1.1548,5.3711q-.246,3.1656-.2109,7.9981-.0351,4.8339.2109,7.999a17.595,17.595,0,0,0,1.1548,5.3711,12.6953,12.6953,0,0,0,2.8872,4.1572,13.9044,13.9044,0,0,0,4.667,3.085,15.9945,15.9945,0,0,0,6.0176,1.1093,15.79,15.79,0,0,0,5.99-1.1093,13.9456,13.9456,0,0,0,4.6353-3.085,12.9262,12.9262,0,0,0,2.9033-4.1572,17.5783,17.5783,0,0,0,1.1841-5.3711q.26-3.1656.2261-7.999Zm-4.5528,0q.0206,4.3316-.1772,7.0791a16.6307,16.6307,0,0,1-.8457,4.4912,8.5106,8.5106,0,0,1-1.9785,3.0771,10.1385,10.1385,0,0,1-3.3535,2.2432,11.1086,11.1086,0,0,1-8.06,0,10.1069,10.1069,0,0,1-3.3545-2.2432,8.5013,8.5013,0,0,1-1.98-3.0771,16.6344,16.6344,0,0,1-.8447-4.4912q-.197-2.7466-.1777-7.0791-.019-4.333.1777-7.0782a16.6334,16.6334,0,0,1,.8447-4.49,8.4958,8.4958,0,0,1,1.98-3.0781,10.1069,10.1069,0,0,1,3.3545-2.2432,11.095,11.095,0,0,1,8.06,0,10.1385,10.1385,0,0,1,3.3535,2.2432,8.5051,8.5051,0,0,1,1.9785,3.0781,16.63,16.63,0,0,1,.8457,4.49q.1963,2.7451.1772,7.0782Z"/><polygon class="cls-1" points="262.935 74.106 262.935 30.667 258.306 30.667 258.306 74.106 262.935 74.106 262.935 74.106"/><path class="cls-1" d="M80.2363,21.5488c7.395.8438,14.86,1.5391,22.55,1.6846a126.201,126.201,0,0,0,23.5063-1.4941c11.4575-1.9639,20.47-6.0293,26.0952-10.8916.3985-.3438.7808-.6934,1.1519-1.0508-2.6768.7871-5.1807,1.5752-7.6655,2.3174a133.0876,133.0876,0,0,1-34.8409,5.7177c-11.2041.38-21.789-.9677-32.6567-2.2256-17.3242-2.0048-32.1382-2.3125-49.1953.8418a140.3233,140.3233,0,0,0-28.31,8.4659c-.2915.12-.581.2392-.8715.3584,0,0,.2265-.0459.6347-.129,15.14-3.0849,24.0269-5.582,40.9063-6.0771a202.1117,202.1117,0,0,1,27.4023,1.1563l3.9888.4853.0386,53.35h6.186V21.5488Z"/><path class="cls-2" d="M.871,15.1172q-.435.1786-.871.3574s.227-.0449.6352-.13c15.1392-3.083,24.0264-5.582,40.9063-6.0771a207.3488,207.3488,0,0,1,31.1362,1.584,292.759,292.759,0,0,0,30.1079,2.5849,126.206,126.206,0,0,0,23.5078-1.4941c11.457-1.9639,20.4712-6.0293,26.0972-10.8916Q152.9831.5351,153.541,0c-2.6763.7871-5.1817,1.5752-7.6651,2.3179a133.2062,133.2062,0,0,1-34.8423,5.7173c-11.2016.38-21.788-.9678-32.6562-2.2256-17.3237-2.0049-32.1392-2.3125-49.1958.8418A140.39,140.39,0,0,0,.871,15.1172Z"/><path class="cls-1" d="M244.0654,74.1064,222.7236,15.8935h-5.2344L196.0654,74.1064h6.623l4.66-13.167h25.4336l4.66,13.167Zm-13.084-18.5537h-21.752l10.959-30.747,10.793,30.747Z"/><path class="cls-1" d="M309.4189,74.1064,299.11,54.3965a11.2536,11.2536,0,0,0,9.4522-11.65q-.0924-5.6851-3.5967-8.8555a13.4593,13.4593,0,0,0-9.2715-3.2236H279.0361V74.1064h4.6308V54.8242h10.44l9.8857,19.2822Zm-5.4844-31.3007a7.4956,7.4956,0,0,1-2.4355,5.96,9.3868,9.3868,0,0,1-6.2324,1.9756h-11.6V34.8086h11.6a9.3283,9.3283,0,0,1,6.2324,2.0068,7.5848,7.5848,0,0,1,2.4355,5.99Z"/><path class="cls-1" d="M133.5444,74.1064,117.895,31.4228h-3.836l-15.71,42.6836h4.8569l3.417-9.6543h18.6479l3.4166,9.6543Zm-9.5928-13.6035H108.0029l8.0337-22.5439,7.915,22.5439Z"/></svg>