<svg   xmlns="http://www.w3.org/2000/svg" viewBox="0 0 353.6348 93.6612"><defs><style></style></defs><title>logo</title><path class="cls-1" d="M172.461,52.3838q.0315-4.831-.2285-7.9971a17.5362,17.5362,0,0,0-1.1841-5.3721,12.8771,12.8771,0,0,0-2.9024-4.1562,13.9079,13.9079,0,0,0-4.6357-3.085,15.7668,15.7668,0,0,0-5.99-1.1094,15.978,15.978,0,0,0-6.0186,1.1094,13.8952,13.8952,0,0,0-4.6665,3.085,12.6834,12.6834,0,0,0-2.8862,4.1562,17.6026,17.6026,0,0,0-1.1568,5.3721q-.2439,3.1655-.21,7.9971-.0345,4.8354.21,8a17.6031,17.6031,0,0,0,1.1568,5.3711,12.6869,12.6869,0,0,0,2.8862,4.1572,13.9234,13.9234,0,0,0,4.6665,3.0849,15.978,15.978,0,0,0,6.0186,1.1075,15.7669,15.7669,0,0,0,5.99-1.1075,13.9364,13.9364,0,0,0,4.6357-3.0849,12.8807,12.8807,0,0,0,2.9024-4.1572,17.5369,17.5369,0,0,0,1.1841-5.3711q.26-3.1656.2285-8Zm-4.5528,0q.017,4.3329-.18,7.08a16.5654,16.5654,0,0,1-.8433,4.4893,8.4751,8.4751,0,0,1-1.981,3.0772,10.0944,10.0944,0,0,1-3.3545,2.2451,11.1044,11.1044,0,0,1-8.0585,0,10.1166,10.1166,0,0,1-3.355-2.2451,8.4613,8.4613,0,0,1-1.9776-3.0772,16.52,16.52,0,0,1-.8462-4.4893q-.1954-2.7465-.1777-7.08-.0191-4.3315.1777-7.0782a16.5519,16.5519,0,0,1,.8462-4.4912,8.449,8.449,0,0,1,1.9776-3.0742,10.0848,10.0848,0,0,1,3.355-2.2451,11.0907,11.0907,0,0,1,8.0585,0,10.0627,10.0627,0,0,1,3.3545,2.2451,8.4628,8.4628,0,0,1,1.981,3.0742,16.5972,16.5972,0,0,1,.8433,4.4912q.1992,2.7467.18,7.0782Z"/><polygon class="cls-1" points="262.404 74.104 262.404 30.665 257.774 30.665 257.774 74.104 262.404 74.104 262.404 74.104"/><path class="cls-1" d="M77.8555,93.582l-3.42-9.3281h-.8384L70.1636,93.582h1.0606l.7465-2.11h4.0762l.7471,2.11Zm-2.0967-2.9726H72.274l1.7544-4.9288,1.73,4.9288Z"/><polygon class="cls-1" points="84.903 93.582 84.903 84.254 83.909 84.254 83.909 93.582 84.903 93.582 84.903 93.582"/><path class="cls-1" d="M98.6748,93.582,96.461,89.35a2.4189,2.4189,0,0,0,2.0307-2.502,2.4882,2.4882,0,0,0-.7729-1.9013,2.88,2.88,0,0,0-1.9912-.6924H92.1509V93.582h.9942V89.44h2.2407L97.51,93.582Zm-1.1777-6.7207a1.6116,1.6116,0,0,1-.5224,1.28,2.0169,2.0169,0,0,1-1.3384.4248H93.1451V85.1426h2.4912a2.0045,2.0045,0,0,1,1.3384.4316,1.625,1.625,0,0,1,.5224,1.2871Z"/><path class="cls-1" d="M119.1812,90.8847h-.9961a2.4662,2.4662,0,0,1-.7769,1.376,2.2005,2.2005,0,0,1-1.4648.5108,2.3544,2.3544,0,0,1-.88-.1641,2.1955,2.1955,0,0,1-.7309-.4922,1.8509,1.8509,0,0,1-.4331-.6709,3.63,3.63,0,0,1-.1841-.98c-.0288-.4-.042-.914-.0381-1.5459-.0039-.6318.0093-1.1455.0381-1.5459a3.63,3.63,0,0,1,.1841-.98,1.8834,1.8834,0,0,1,.4331-.6729,2.2339,2.2339,0,0,1,.7309-.49,2.354,2.354,0,0,1,.88-.1631,2.1422,2.1422,0,0,1,1.4512.5107,2.4682,2.4682,0,0,1,.7641,1.375h1.0225a3.46,3.46,0,0,0-1.1074-2.041,3.207,3.207,0,0,0-2.13-.7353,3.5093,3.5093,0,0,0-1.3135.2412,3.0806,3.0806,0,0,0-1.019.6748,2.7659,2.7659,0,0,0-.63.9082,3.8143,3.8143,0,0,0-.252,1.1729q-.0549.6914-.0463,1.746-.0073,1.0562.0463,1.7461a3.8278,3.8278,0,0,0,.252,1.1739,2.7831,2.7831,0,0,0,.63.9072,3.0668,3.0668,0,0,0,1.019.6748,3.4721,3.4721,0,0,0,1.3135.2412,3.2049,3.2049,0,0,0,2.124-.7344,3.4528,3.4528,0,0,0,1.1138-2.042Z"/><path class="cls-1" d="M131.9693,88.9179q.0074-1.0562-.0488-1.746a3.8473,3.8473,0,0,0-.2593-1.1729,2.8106,2.8106,0,0,0-.6338-.9082,3.0889,3.0889,0,0,0-1.0127-.6748,3.4613,3.4613,0,0,0-1.3086-.2412,3.5063,3.5063,0,0,0-1.313.2412,3.0788,3.0788,0,0,0-1.02.6748,2.7641,2.7641,0,0,0-.6294.9082,3.8289,3.8289,0,0,0-.252,1.1729q-.0541.6914-.0473,1.746-.0074,1.0562.0473,1.7461a3.8425,3.8425,0,0,0,.252,1.1739,2.7813,2.7813,0,0,0,.6294.9072,3.065,3.065,0,0,0,1.02.6748,3.4691,3.4691,0,0,0,1.313.2412,3.4248,3.4248,0,0,0,1.3086-.2412,3.0749,3.0749,0,0,0,1.0127-.6748,2.8284,2.8284,0,0,0,.6338-.9072,3.8611,3.8611,0,0,0,.2593-1.1739q.0549-.6913.0488-1.7461Zm-.9946,0c.0034.6319-.0093,1.1456-.0391,1.5459a3.562,3.562,0,0,1-.1841.98,1.8138,1.8138,0,0,1-.4326.6709,2.1829,2.1829,0,0,1-.7315.4922,2.4435,2.4435,0,0,1-1.7607,0,2.1944,2.1944,0,0,1-.7319-.4922,1.8434,1.8434,0,0,1-.4322-.6709,3.5383,3.5383,0,0,1-.1845-.98c-.0288-.4-.0425-.914-.0386-1.5459-.0039-.6318.01-1.1455.0386-1.5459a3.5383,3.5383,0,0,1,.1845-.98,1.8756,1.8756,0,0,1,.4322-.6729,2.2327,2.2327,0,0,1,.7319-.49,2.4574,2.4574,0,0,1,1.7607,0,2.2207,2.2207,0,0,1,.7315.49,1.845,1.845,0,0,1,.4326.6729,3.5619,3.5619,0,0,1,.1841.98c.03.4.0425.9141.0391,1.5459Z"/><polygon class="cls-1" points="145.753 93.582 145.753 84.254 144.76 84.254 144.76 91.708 139.804 84.254 138.862 84.254 138.862 93.582 139.855 93.582 139.855 86.101 144.813 93.582 145.753 93.582 145.753 93.582"/><path class="cls-1" d="M159.4732,88.9179a12.8486,12.8486,0,0,0-.104-2.0429,3.0487,3.0487,0,0,0-.7207-1.6406,2.8913,2.8913,0,0,0-1.0674-.7461,3.7116,3.7116,0,0,0-1.3828-.2344h-3.1978V93.582h3.1978a3.7116,3.7116,0,0,0,1.3828-.2344,2.8913,2.8913,0,0,0,1.0674-.7461,3.052,3.052,0,0,0,.7207-1.6406,12.85,12.85,0,0,0,.104-2.043Zm-.9946,0a12.7866,12.7866,0,0,1-.0816,1.793,2.3589,2.3589,0,0,1-.5337,1.3008,1.9286,1.9286,0,0,1-.83.5371,3.1914,3.1914,0,0,1-1.0058.1445h-2.0327V85.1426h2.0327a3.1886,3.1886,0,0,1,1.0058.1455,1.9173,1.9173,0,0,1,.83.5361,2.3621,2.3621,0,0,1,.5337,1.3008,12.8,12.8,0,0,1,.0816,1.7929Z"/><polygon class="cls-1" points="167.361 93.582 167.361 84.254 166.365 84.254 166.365 93.582 167.361 93.582 167.361 93.582"/><polygon class="cls-1" points="180.045 85.143 180.045 84.254 173.65 84.254 173.65 85.143 176.349 85.143 176.349 93.582 177.346 93.582 177.346 85.143 180.045 85.143 180.045 85.143"/><polygon class="cls-1" points="187.33 93.582 187.33 84.254 186.336 84.254 186.336 93.582 187.33 93.582 187.33 93.582"/><path class="cls-1" d="M200.7481,88.9179q.0059-1.0562-.0508-1.746a3.8172,3.8172,0,0,0-.2578-1.1729,2.7835,2.7835,0,0,0-.6348-.9082,3.0639,3.0639,0,0,0-1.0117-.6748,3.4631,3.4631,0,0,0-1.3086-.2412,3.4983,3.4983,0,0,0-1.3125.2412,3.1068,3.1068,0,0,0-1.0215.6748,2.7623,2.7623,0,0,0-.6289.9082,3.8262,3.8262,0,0,0-.2519,1.1729c-.0371.4609-.0508,1.0419-.0469,1.746-.0039.7041.01,1.2852.0469,1.7461a3.84,3.84,0,0,0,.2519,1.1739,2.7794,2.7794,0,0,0,.6289.9072,3.0928,3.0928,0,0,0,1.0215.6748,3.4613,3.4613,0,0,0,1.3125.2412,3.4266,3.4266,0,0,0,1.3086-.2412,3.05,3.05,0,0,0,1.0117-.6748,2.801,2.801,0,0,0,.6348-.9072,3.8309,3.8309,0,0,0,.2578-1.1739q.0556-.6913.0508-1.7461Zm-.9941,0c.0019.6319-.0118,1.1456-.0391,1.5459a3.6442,3.6442,0,0,1-.1856.98,1.8406,1.8406,0,0,1-.4316.6709,2.1914,2.1914,0,0,1-.7324.4922,2.441,2.441,0,0,1-1.76,0,2.1914,2.1914,0,0,1-.7324-.4922,1.8406,1.8406,0,0,1-.4316-.6709,3.5678,3.5678,0,0,1-.1856-.98c-.0293-.4-.041-.914-.0391-1.5459-.0019-.6318.01-1.1455.0391-1.5459a3.5678,3.5678,0,0,1,.1856-.98,1.8727,1.8727,0,0,1,.4316-.6729,2.23,2.23,0,0,1,.7324-.49,2.455,2.455,0,0,1,1.76,0,2.23,2.23,0,0,1,.7324.49,1.8727,1.8727,0,0,1,.4316.6729,3.6442,3.6442,0,0,1,.1856.98c.0273.4.041.9141.0391,1.5459Z"/><polygon class="cls-1" points="214.531 93.582 214.531 84.254 213.537 84.254 213.537 91.708 208.582 84.254 207.641 84.254 207.641 93.582 208.635 93.582 208.635 86.101 213.59 93.582 214.531 93.582 214.531 93.582"/><polygon class="cls-1" points="222.774 93.582 222.774 84.254 221.779 84.254 221.779 93.582 222.774 93.582 222.774 93.582"/><polygon class="cls-1" points="236.912 93.582 236.912 84.254 235.918 84.254 235.918 91.708 230.963 84.254 230.02 84.254 230.02 93.582 231.014 93.582 231.014 86.101 235.969 93.582 236.912 93.582 236.912 93.582"/><path class="cls-1" d="M250.3555,90.1885v-1.48h-3.289v.85h2.2949v.7217a3.2793,3.2793,0,0,1-.1192.9336,2.199,2.199,0,0,1-.4062.7578,2.1444,2.1444,0,0,1-.791.5948,2.3754,2.3754,0,0,1-.9785.2041,2.34,2.34,0,0,1-.8887-.1661,2.0649,2.0649,0,0,1-.7227-.49,1.8469,1.8469,0,0,1-.4336-.6709,3.6708,3.6708,0,0,1-.1836-.98c-.0293-.4-.0429-.914-.039-1.5459q-.0059-.9447.039-1.5459a3.6708,3.6708,0,0,1,.1836-.98,1.8545,1.8545,0,0,1,.4336-.6709,2.11,2.11,0,0,1,.7227-.4922,2.3775,2.3775,0,0,1,.8887-.1631,2.2229,2.2229,0,0,1,1.4726.502,2.4743,2.4743,0,0,1,.7969,1.3974h.9941a3.3488,3.3488,0,0,0-1.0722-2,3.2588,3.2588,0,0,0-2.1914-.79,3.5161,3.5161,0,0,0-1.3145.2412,3.07,3.07,0,0,0-1.0176.6748,2.7408,2.7408,0,0,0-.6308.9082,3.8387,3.8387,0,0,0-.252,1.1729q-.0526.6914-.0469,1.746-.0058,1.0562.0469,1.7461a3.8523,3.8523,0,0,0,.252,1.1739,2.7576,2.7576,0,0,0,.6308.9072,3.0558,3.0558,0,0,0,1.0176.6748,3.6423,3.6423,0,0,0,2.6738-.0264,3.2223,3.2223,0,0,0,1.1309-.8056,2.8023,2.8023,0,0,0,.624-1.0469,4.3669,4.3669,0,0,0,.1748-1.3525Z"/><path class="cls-1" d="M270.65,91.0146a2.5536,2.5536,0,0,0-.205-1.0439,2.1985,2.1985,0,0,0-.5782-.79,2.1327,2.1327,0,0,0-.6777-.4287,4.7647,4.7647,0,0,0-1.0137-.2392l-1.0879-.1709a3.5574,3.5574,0,0,1-.6836-.18,1.7738,1.7738,0,0,1-.5351-.3057,1.1061,1.1061,0,0,1-.3184-.4658,1.715,1.715,0,0,1-.1015-.6221,1.6458,1.6458,0,0,1,.5175-1.2656,2.1283,2.1283,0,0,1,1.461-.4775,3.4367,3.4367,0,0,1,1.24.2031,2.8571,2.8571,0,0,1,.9375.6094l.6406-.6436a3.9481,3.9481,0,0,0-1.2421-.7744,4.27,4.27,0,0,0-1.5352-.2451,3.2232,3.2232,0,0,0-2.1875.7158,2.4559,2.4559,0,0,0-.8008,1.9033,2.6078,2.6078,0,0,0,.1826,1.0059,2.0474,2.0474,0,0,0,.5362.751,2.5839,2.5839,0,0,0,.7343.4462,4.2478,4.2478,0,0,0,.9707.2627l1.0879.1573a3.8528,3.8528,0,0,1,.752.1709,1.3343,1.3343,0,0,1,.4668.2881,1.22,1.22,0,0,1,.3476.498,1.8249,1.8249,0,0,1,.1114.666,1.5424,1.5424,0,0,1-.5918,1.2793,2.6263,2.6263,0,0,1-1.6231.4522,3.7772,3.7772,0,0,1-1.376-.2139,3.319,3.319,0,0,1-1.1669-.7959l-.669.67a3.9247,3.9247,0,0,0,1.3955.9434,4.8864,4.8864,0,0,0,1.7891.2861,3.67,3.67,0,0,0,2.3437-.709,2.3982,2.3982,0,0,0,.8789-1.9375Z"/><polygon class="cls-1" points="283.072 93.582 283.072 92.693 278.275 92.693 278.275 89.323 282.365 89.323 282.365 88.434 278.275 88.434 278.275 85.143 283.072 85.143 283.072 84.254 277.283 84.254 277.283 93.582 283.072 93.582 283.072 93.582"/><path class="cls-1" d="M296.2168,93.582,294.002,89.35a2.4187,2.4187,0,0,0,2.0312-2.502,2.49,2.49,0,0,0-.7734-1.9013,2.8826,2.8826,0,0,0-1.99-.6924h-3.5781V93.582h.9941V89.44h2.2422l2.123,4.1416Zm-1.18-6.7207a1.6128,1.6128,0,0,1-.5215,1.28,2.02,2.02,0,0,1-1.34.4248h-2.49V85.1426h2.49a2.0077,2.0077,0,0,1,1.34.4316,1.6261,1.6261,0,0,1,.5215,1.2871Z"/><polygon class="cls-1" points="308.467 84.254 307.418 84.254 304.995 91.8 302.57 84.254 301.522 84.254 304.588 93.582 305.4 93.582 308.467 84.254 308.467 84.254"/><polygon class="cls-1" points="315.463 93.582 315.463 84.254 314.469 84.254 314.469 93.582 315.463 93.582 315.463 93.582"/><path class="cls-1" d="M328.8536,90.8847h-.9942a2.4551,2.4551,0,0,1-.7773,1.376,2.203,2.203,0,0,1-1.4629.5108,2.3375,2.3375,0,0,1-.8809-.1641,2.1716,2.1716,0,0,1-.7324-.4922,1.8991,1.8991,0,0,1-.4336-.6709,3.6557,3.6557,0,0,1-.1836-.98c-.03-.4-.041-.914-.0371-1.5459-.0039-.6318.0068-1.1455.0371-1.5459a3.6557,3.6557,0,0,1,.1836-.98,1.9332,1.9332,0,0,1,.4336-.6729,2.209,2.209,0,0,1,.7324-.49,2.3372,2.3372,0,0,1,.8809-.1631,2.1387,2.1387,0,0,1,1.4492.5107,2.469,2.469,0,0,1,.7627,1.375h1.0225a3.4356,3.4356,0,0,0-1.1065-2.041,3.2059,3.2059,0,0,0-2.1279-.7353,3.5018,3.5018,0,0,0-1.3145.2412,3.0574,3.0574,0,0,0-1.02.6748,2.8,2.8,0,0,0-.6309.9082,3.8858,3.8858,0,0,0-.2519,1.1729q-.0528.6914-.0469,1.746-.0059,1.0562.0469,1.7461a3.9,3.9,0,0,0,.2519,1.1739,2.8177,2.8177,0,0,0,.6309.9072,3.0438,3.0438,0,0,0,1.02.6748,3.4647,3.4647,0,0,0,1.3145.2412,3.2041,3.2041,0,0,0,2.123-.7344,3.4561,3.4561,0,0,0,1.1114-2.042Z"/><polygon class="cls-1" points="341.393 93.582 341.393 92.693 336.597 92.693 336.597 89.323 340.686 89.323 340.686 88.434 336.597 88.434 336.597 85.143 341.393 85.143 341.393 84.254 335.602 84.254 335.602 93.582 341.393 93.582 341.393 93.582"/><path class="cls-1" d="M353.6348,91.0146a2.6887,2.6887,0,0,0-.207-1.0439,2.2022,2.2022,0,0,0-.58-.79,2.1449,2.1449,0,0,0-.6777-.4287,4.7662,4.7662,0,0,0-1.0137-.2392l-1.0879-.1709a3.5541,3.5541,0,0,1-.6816-.18,1.7716,1.7716,0,0,1-.5371-.3057,1.1469,1.1469,0,0,1-.32-.4658,1.8518,1.8518,0,0,1-.1-.6221,1.6524,1.6524,0,0,1,.5175-1.2656,2.1309,2.1309,0,0,1,1.4619-.4775,3.4473,3.4473,0,0,1,1.2422.2031,2.8216,2.8216,0,0,1,.9336.6094l.6416-.6436a3.9333,3.9333,0,0,0-1.2412-.7744,4.2694,4.2694,0,0,0-1.5351-.2451,3.2267,3.2267,0,0,0-2.1875.7158,2.4556,2.4556,0,0,0-.8008,1.9033,2.5871,2.5871,0,0,0,.1836,1.0059,2.0588,2.0588,0,0,0,.5361.751,2.5407,2.5407,0,0,0,.7334.4462,4.2377,4.2377,0,0,0,.9727.2627l1.0859.1573a3.907,3.907,0,0,1,.752.1709,1.3087,1.3087,0,0,1,.4668.2881,1.2291,1.2291,0,0,1,.3476.498,1.8681,1.8681,0,0,1,.1113.666,1.5541,1.5541,0,0,1-.59,1.2793,2.6324,2.6324,0,0,1-1.625.4522,3.7752,3.7752,0,0,1-1.375-.2139,3.281,3.281,0,0,1-1.166-.7959l-.67.67a3.937,3.937,0,0,0,1.3945.9434,4.9,4.9,0,0,0,1.789.2861,3.6781,3.6781,0,0,0,2.3458-.709,2.4114,2.4114,0,0,0,.8808-1.9375Z"/><path class="cls-2" d="M.8711,15.1172q-.435.1786-.8711.3564l.6353-.1289c15.1392-3.084,24.0269-5.582,40.9058-6.0771A207.336,207.336,0,0,1,72.6763,10.85a291.7334,291.7334,0,0,0,30.1109,2.5849A126.1044,126.1044,0,0,0,126.293,11.94c11.4575-1.9619,20.4712-6.0293,26.0962-10.8916Q152.984.5361,153.54,0c-2.6768.7861-5.1817,1.5752-7.6646,2.3154a133.1832,133.1832,0,0,1-34.8418,5.72C99.8311,8.415,89.2452,7.0674,78.377,5.81,61.0533,3.8027,46.2378,3.497,29.1817,6.6513A140.3126,140.3126,0,0,0,.8711,15.1172Z"/><path class="cls-1" d="M243.5352,74.1045,222.1915,15.8916H216.959L195.5332,74.1045h6.6231l4.6621-13.1651H232.25l4.6622,13.1651Zm-13.084-18.5528H208.6993l10.957-30.7461,10.7949,30.7461Z"/><path class="cls-1" d="M308.8868,74.1045l-10.3077-19.708a11.2617,11.2617,0,0,0,9.4541-11.6524q-.0966-5.6821-3.5957-8.8535a13.4852,13.4852,0,0,0-9.2753-3.2256H278.5059v43.44h4.6309V54.8222h10.4375l9.8886,19.2823ZM303.4,42.8056a7.51,7.51,0,0,1-2.4316,5.96,9.391,9.391,0,0,1-6.2324,1.9756h-11.6V34.8086h11.6a9.3162,9.3162,0,0,1,6.2324,2.0068,7.5986,7.5986,0,0,1,2.4316,5.99Z"/><path class="cls-1" d="M133.0132,74.1045,117.3638,31.4228h-3.8369L97.8179,74.1045h4.8569l3.4175-9.6524h18.647l3.418,9.6524ZM123.42,60.5029H107.4722l8.0337-22.5459L123.42,60.5029Z"/><path class="cls-1" d="M80.2364,21.6474c7.395.8438,14.86,1.5391,22.55,1.6846a126.201,126.201,0,0,0,23.5063-1.4941c11.4575-1.9639,20.47-6.0293,26.0952-10.8916.3985-.3438.7808-.6934,1.1519-1.0508-2.6768.7871-5.1807,1.5752-7.6655,2.3174a133.0876,133.0876,0,0,1-34.8409,5.7177c-11.2041.38-21.789-.9677-32.6567-2.2255-17.3242-2.0049-32.1382-2.3125-49.1953.8418a140.3169,140.3169,0,0,0-28.31,8.4658c-.2915.12-.581.2392-.8716.3584,0,0,.2266-.0459.6348-.1289,15.14-3.085,24.0269-5.5821,40.9063-6.0772a202.1279,202.1279,0,0,1,27.4023,1.1563l3.9888.4853.0385,53.35h6.1861V21.6474Z"/></svg>
