<svg id="Layer_1" data-name="Layer 1" xmlns="http://www.w3.org/2000/svg" viewBox="0 0 354.164 93.6622"><defs><style>.cls-1{fill:#fff;}.cls-1,.cls-2{fill-rule:evenodd;}.cls-2{fill:#2cb34a;}</style></defs><title>logo1</title><path class="cls-1" d="M172.9907,52.3848q.0336-4.8325-.2261-7.9981a17.592,17.592,0,0,0-1.1841-5.3711,12.9262,12.9262,0,0,0-2.9033-4.1572,13.93,13.93,0,0,0-4.6353-3.085,15.7551,15.7551,0,0,0-5.99-1.1084,15.9593,15.9593,0,0,0-6.0176,1.1084,13.8894,13.8894,0,0,0-4.667,3.085,12.6953,12.6953,0,0,0-2.8872,4.1572,17.6084,17.6084,0,0,0-1.1548,5.3711q-.246,3.1656-.2109,7.9981-.0351,4.8339.2109,7.999a17.595,17.595,0,0,0,1.1548,5.3711,12.6953,12.6953,0,0,0,2.8872,4.1572,13.9044,13.9044,0,0,0,4.667,3.085,15.9945,15.9945,0,0,0,6.0176,1.1093,15.79,15.79,0,0,0,5.99-1.1093,13.9456,13.9456,0,0,0,4.6353-3.085,12.9262,12.9262,0,0,0,2.9033-4.1572,17.5783,17.5783,0,0,0,1.1841-5.3711q.26-3.1656.2261-7.999Zm-4.5528,0q.0206,4.3316-.1772,7.0791a16.6307,16.6307,0,0,1-.8457,4.4912,8.5106,8.5106,0,0,1-1.9785,3.0771,10.1385,10.1385,0,0,1-3.3535,2.2432,11.1086,11.1086,0,0,1-8.06,0,10.1069,10.1069,0,0,1-3.3545-2.2432,8.5013,8.5013,0,0,1-1.98-3.0771,16.6344,16.6344,0,0,1-.8447-4.4912q-.197-2.7466-.1777-7.0791-.019-4.333.1777-7.0782a16.6334,16.6334,0,0,1,.8447-4.49,8.4958,8.4958,0,0,1,1.98-3.0781,10.1069,10.1069,0,0,1,3.3545-2.2432,11.095,11.095,0,0,1,8.06,0,10.1385,10.1385,0,0,1,3.3535,2.2432,8.5051,8.5051,0,0,1,1.9785,3.0781,16.63,16.63,0,0,1,.8457,4.49q.1963,2.7451.1772,7.0782Z"/><polygon class="cls-1" points="262.935 74.106 262.935 30.667 258.306 30.667 258.306 74.106 262.935 74.106 262.935 74.106"/><path class="cls-1" d="M80.2363,21.5488c7.395.8438,14.86,1.5391,22.55,1.6846a126.201,126.201,0,0,0,23.5063-1.4941c11.4575-1.9639,20.47-6.0293,26.0952-10.8916.3985-.3438.7808-.6934,1.1519-1.0508-2.6768.7871-5.1807,1.5752-7.6655,2.3174a133.0876,133.0876,0,0,1-34.8409,5.7177c-11.2041.38-21.789-.9677-32.6567-2.2256-17.3242-2.0048-32.1382-2.3125-49.1953.8418a140.3233,140.3233,0,0,0-28.31,8.4659c-.2915.12-.581.2392-.8715.3584,0,0,.2265-.0459.6347-.129,15.14-3.0849,24.0269-5.582,40.9063-6.0771a202.1117,202.1117,0,0,1,27.4023,1.1563l3.9888.4853.0386,53.35h6.186V21.5488Z"/><path class="cls-2" d="M78.3867,93.582l-3.42-9.3281h-.8379L70.6948,93.582h1.061l.7461-2.1084H76.58l.7456,2.1084ZM76.29,90.6094H72.8037L74.56,85.6826,76.29,90.6094Z"/><polygon class="cls-2" points="85.435 93.582 85.435 84.254 84.44 84.254 84.44 93.582 85.435 93.582 85.435 93.582"/><path class="cls-2" d="M99.206,93.582,96.9931,89.35a2.4173,2.4173,0,0,0,2.0308-2.5019,2.5028,2.5028,0,0,0-.7739-1.9014,2.8881,2.8881,0,0,0-1.9913-.6924H92.6806V93.582h.9951V89.4414h2.2422l2.1236,4.1406Zm-1.1777-6.7207a1.6055,1.6055,0,0,1-.522,1.2783,2.0116,2.0116,0,0,1-1.3394.4268H93.6757V85.1426h2.4912a2.0189,2.0189,0,0,1,1.3394.4316,1.6306,1.6306,0,0,1,.522,1.2871Z"/><path class="cls-2" d="M119.7124,90.8838h-.9966a2.4581,2.4581,0,0,1-.7759,1.3769,2.21,2.21,0,0,1-1.4649.5127,2.39,2.39,0,0,1-.8793-.166,2.2146,2.2146,0,0,1-.7315-.49,1.8378,1.8378,0,0,1-.4331-.6709,3.71,3.71,0,0,1-.1851-.9824q-.0417-.5992-.0376-1.5459c-.0029-.63.01-1.1455.0376-1.544a3.6691,3.6691,0,0,1,.1851-.9814,1.8259,1.8259,0,0,1,.4331-.6719,2.1994,2.1994,0,0,1,.7315-.49,2.3125,2.3125,0,0,1,.8793-.1651,2.1555,2.1555,0,0,1,1.4517.5108,2.4781,2.4781,0,0,1,.7632,1.3769h1.0225a3.4591,3.4591,0,0,0-1.108-2.0429,3.2033,3.2033,0,0,0-2.1294-.7354,3.5535,3.5535,0,0,0-1.3139.2412,3.0656,3.0656,0,0,0-1.0181.6748,2.78,2.78,0,0,0-.6323.9082,3.9451,3.9451,0,0,0-.252,1.1729q-.0526.6914-.0444,1.7461-.0073,1.0562.0444,1.748a3.9458,3.9458,0,0,0,.252,1.1719,2.7458,2.7458,0,0,0,.6323.9072,2.9926,2.9926,0,0,0,1.0181.6748,3.4936,3.4936,0,0,0,1.3139.2422,3.2084,3.2084,0,0,0,2.1246-.7353,3.4658,3.4658,0,0,0,1.1128-2.043Z"/><path class="cls-2" d="M132.5,88.918q.0073-1.0562-.0488-1.7461a3.8134,3.8134,0,0,0-.2593-1.1729,2.8052,2.8052,0,0,0-.6333-.9082,3.1,3.1,0,0,0-1.0131-.6748,3.5,3.5,0,0,0-1.3067-.2412,3.5577,3.5577,0,0,0-1.3154.2412,3.0636,3.0636,0,0,0-1.0186.6748,2.7841,2.7841,0,0,0-.6313.9082,3.8858,3.8858,0,0,0-.2525,1.1729c-.0346.4609-.0507,1.042-.0449,1.7461-.0058.7041.01,1.2861.0449,1.748a3.8865,3.8865,0,0,0,.2525,1.1719,2.75,2.75,0,0,0,.6313.9072,2.9908,2.9908,0,0,0,1.0186.6748,3.4977,3.4977,0,0,0,1.3154.2422,3.4412,3.4412,0,0,0,1.3067-.2422,3.0249,3.0249,0,0,0,1.0131-.6748,2.77,2.77,0,0,0,.6333-.9072,3.814,3.814,0,0,0,.2593-1.1719q.0564-.6928.0488-1.748Zm-.9936,0q.0036.9477-.04,1.5459a3.5959,3.5959,0,0,1-.1831.9824,1.8666,1.8666,0,0,1-.4326.6709,2.22,2.22,0,0,1-.7329.49,2.4174,2.4174,0,0,1-1.7607,0,2.2207,2.2207,0,0,1-.7315-.49,1.8679,1.8679,0,0,1-.4326-.6709,3.6383,3.6383,0,0,1-.1841-.9824q-.0432-.5992-.039-1.5459c-.0025-.63.01-1.1455.039-1.544a3.5992,3.5992,0,0,1,.1841-.9814,1.8556,1.8556,0,0,1,.4326-.6719,2.2054,2.2054,0,0,1,.7315-.49,2.43,2.43,0,0,1,1.7607,0,2.2049,2.2049,0,0,1,.7329.49,1.8543,1.8543,0,0,1,.4326.6719,3.5578,3.5578,0,0,1,.1831.9814c.03.3985.0425.9141.04,1.544Z"/><polygon class="cls-2" points="146.285 93.582 146.285 84.254 145.29 84.254 145.29 91.708 140.336 84.254 139.394 84.254 139.394 93.582 140.388 93.582 140.388 86.102 145.343 93.582 146.285 93.582 146.285 93.582"/><path class="cls-2" d="M160.0043,88.918a13.0329,13.0329,0,0,0-.103-2.043,3.0535,3.0535,0,0,0-.7217-1.6387,2.8783,2.8783,0,0,0-1.0678-.747,3.7,3.7,0,0,0-1.3833-.2354h-3.1963V93.582h3.1963a3.7,3.7,0,0,0,1.3833-.2343,2.9072,2.9072,0,0,0,1.0678-.7452,3.056,3.056,0,0,0,.7217-1.6416,13.0074,13.0074,0,0,0,.103-2.0429Zm-.9941,0a12.9236,12.9236,0,0,1-.0825,1.7929,2.3456,2.3456,0,0,1-.5352,1.3008,1.8838,1.8838,0,0,1-.8286.5371,3.0738,3.0738,0,0,1-1.0049.1446h-2.0322V85.1426h2.0322a3.1788,3.1788,0,0,1,1.0049.1455,1.89,1.89,0,0,1,.8286.5361,2.3487,2.3487,0,0,1,.5352,1.3008,12.9474,12.9474,0,0,1,.0825,1.793Z"/><polygon class="cls-2" points="167.892 93.582 167.892 84.254 166.897 84.254 166.897 93.582 167.892 93.582 167.892 93.582"/><polygon class="cls-2" points="180.577 85.143 180.577 84.254 174.182 84.254 174.182 85.143 176.882 85.143 176.882 93.582 177.876 93.582 177.876 85.143 180.577 85.143 180.577 85.143"/><polygon class="cls-2" points="187.86 93.582 187.86 84.254 186.866 84.254 186.866 93.582 187.86 93.582 187.86 93.582"/><path class="cls-2" d="M201.2783,88.918c.0058-.7041-.0117-1.2852-.0489-1.7461a3.7726,3.7726,0,0,0-.26-1.1729,2.8283,2.8283,0,0,0-.6328-.9082,3.0931,3.0931,0,0,0-1.0137-.6748,3.4922,3.4922,0,0,0-1.3066-.2412,3.5563,3.5563,0,0,0-1.3145.2412,3.0766,3.0766,0,0,0-1.0195.6748,2.8213,2.8213,0,0,0-.6309.9082,3.8989,3.8989,0,0,0-.2519,1.1729q-.0528.6914-.045,1.7461-.0087,1.0562.045,1.748a3.9,3.9,0,0,0,.2519,1.1719,2.7859,2.7859,0,0,0,.6309.9072,3.0032,3.0032,0,0,0,1.0195.6748,3.4964,3.4964,0,0,0,1.3145.2422,3.4337,3.4337,0,0,0,1.3066-.2422,3.0184,3.0184,0,0,0,1.0137-.6748,2.7928,2.7928,0,0,0,.6328-.9072,3.7732,3.7732,0,0,0,.26-1.1719c.0372-.4619.0547-1.0439.0489-1.748Zm-.9942,0c.002.6318-.01,1.1464-.039,1.5459a3.6208,3.6208,0,0,1-.1836.9824,1.859,1.859,0,0,1-.4317.6709,2.2423,2.2423,0,0,1-.7343.49,2.41,2.41,0,0,1-1.7579,0,2.1761,2.1761,0,0,1-.7324-.49,1.839,1.839,0,0,1-.4336-.6709,3.6208,3.6208,0,0,1-.1836-.9824q-.0439-.5992-.039-1.5459c-.0039-.63.01-1.1455.039-1.544a3.5822,3.5822,0,0,1,.1836-.9814,1.8271,1.8271,0,0,1,.4336-.6719,2.1614,2.1614,0,0,1,.7324-.49,2.4222,2.4222,0,0,1,1.7579,0,2.2267,2.2267,0,0,1,.7343.49,1.8468,1.8468,0,0,1,.4317.6719,3.5822,3.5822,0,0,1,.1836.9814c.0293.3985.041.9141.039,1.544Z"/><polygon class="cls-2" points="215.063 93.582 215.063 84.254 214.069 84.254 214.069 91.708 209.114 84.254 208.171 84.254 208.171 93.582 209.167 93.582 209.167 86.102 214.122 93.582 215.063 93.582 215.063 93.582"/><polygon class="cls-2" points="223.304 93.582 223.304 84.254 222.31 84.254 222.31 93.582 223.304 93.582 223.304 93.582"/><polygon class="cls-2" points="237.442 93.582 237.442 84.254 236.448 84.254 236.448 91.708 231.493 84.254 230.552 84.254 230.552 93.582 231.546 93.582 231.546 86.102 236.501 93.582 237.442 93.582 237.442 93.582"/><path class="cls-2" d="M250.8876,90.1894v-1.48h-3.29v.8515h2.294v.7207a3.146,3.146,0,0,1-.1192.9336,2.1435,2.1435,0,0,1-1.1963,1.3545,2.4566,2.4566,0,0,1-1.8681.0381,2.1092,2.1092,0,0,1-.7227-.49,1.8651,1.8651,0,0,1-.4316-.6729,3.6514,3.6514,0,0,1-.1856-.98c-.0273-.3995-.041-.9141-.0371-1.5459-.0039-.63.01-1.1455.0371-1.544a3.6437,3.6437,0,0,1,.1856-.9814,1.8452,1.8452,0,0,1,.4316-.6719,2.0952,2.0952,0,0,1,.7227-.49,2.3365,2.3365,0,0,1,.89-.1651,2.2329,2.2329,0,0,1,1.4736.502,2.4714,2.4714,0,0,1,.795,1.3994h.9931a3.3448,3.3448,0,0,0-1.0693-2.002,3.2594,3.2594,0,0,0-2.1924-.79,3.5479,3.5479,0,0,0-1.3135.2412,3.0776,3.0776,0,0,0-1.0195.6748,2.7918,2.7918,0,0,0-.6309.9082,3.8989,3.8989,0,0,0-.2519,1.1729q-.0528.6914-.0449,1.7461-.0089,1.0562.0449,1.7461a3.9129,3.9129,0,0,0,.2519,1.1738,2.7778,2.7778,0,0,0,.6309.9072,3.0042,3.0042,0,0,0,1.0195.6748,3.637,3.637,0,0,0,2.6719-.0244,3.2053,3.2053,0,0,0,1.1328-.8076,2.8029,2.8029,0,0,0,.624-1.0469,4.3885,4.3885,0,0,0,.1748-1.3516Z"/><path class="cls-2" d="M271.1826,91.0166a2.5734,2.5734,0,0,0-.208-1.0459,2.1956,2.1956,0,0,0-.5772-.79,2.1243,2.1243,0,0,0-.6777-.4278,4.6842,4.6842,0,0,0-1.0137-.24l-1.0859-.1709a3.3929,3.3929,0,0,1-.6836-.18,1.78,1.78,0,0,1-.5371-.3047,1.1545,1.1545,0,0,1-.3194-.4658,1.8089,1.8089,0,0,1-.1006-.6231,1.6538,1.6538,0,0,1,.5166-1.2646,2.1433,2.1433,0,0,1,1.4639-.4785,3.4064,3.4064,0,0,1,1.24.2051,2.812,2.812,0,0,1,.9356.6074l.6426-.6416a3.9567,3.9567,0,0,0-1.2422-.7764,4.3178,4.3178,0,0,0-1.5371-.2451,3.2232,3.2232,0,0,0-2.1856.7158,2.451,2.451,0,0,0-.8008,1.9033,2.6137,2.6137,0,0,0,.1817,1.0079,2.0915,2.0915,0,0,0,.5361.7509,2.6687,2.6687,0,0,0,.7354.4463,4.335,4.335,0,0,0,.9687.2608l1.0879.1572a4.0324,4.0324,0,0,1,.7529.1689,1.3742,1.3742,0,0,1,.4678.29,1.2787,1.2787,0,0,1,.3477.499,1.8843,1.8843,0,0,1,.1113.667,1.5435,1.5435,0,0,1-.5918,1.2773,2.6344,2.6344,0,0,1-1.625.4541,3.8127,3.8127,0,0,1-1.374-.2158,3.2944,3.2944,0,0,1-1.168-.7939l-.667.6679a3.8789,3.8789,0,0,0,1.3946.9434,4.8989,4.8989,0,0,0,1.789.2871,3.6645,3.6645,0,0,0,2.3438-.71,2.4,2.4,0,0,0,.8789-1.9355Z"/><polygon class="cls-2" points="283.604 93.582 283.604 92.693 278.808 92.693 278.808 89.324 282.897 89.324 282.897 88.435 278.808 88.435 278.808 85.143 283.604 85.143 283.604 84.254 277.813 84.254 277.813 93.582 283.604 93.582 283.604 93.582"/><path class="cls-2" d="M296.747,93.582,294.5341,89.35a2.4138,2.4138,0,0,0,2.0284-2.5019,2.4912,2.4912,0,0,0-.7725-1.9014,2.8854,2.8854,0,0,0-1.99-.6924h-3.5782V93.582h.9961V89.4414h2.24l2.125,4.1406Zm-1.1777-6.7207a1.6055,1.6055,0,0,1-.5244,1.2783,2.0023,2.0023,0,0,1-1.3369.4268h-2.49V85.1426h2.49a2.01,2.01,0,0,1,1.3369.4316,1.6306,1.6306,0,0,1,.5244,1.2871Z"/><polygon class="cls-2" points="308.999 84.254 307.952 84.254 305.526 91.802 303.1 84.254 302.054 84.254 305.12 93.582 305.933 93.582 308.999 84.254 308.999 84.254"/><polygon class="cls-2" points="315.995 93.582 315.995 84.254 315.001 84.254 315.001 93.582 315.995 93.582 315.995 93.582"/><path class="cls-2" d="M329.3857,90.8838h-.9981a2.4323,2.4323,0,0,1-.7734,1.3769,2.214,2.214,0,0,1-1.4648.5127,2.4061,2.4061,0,0,1-.8809-.166,2.2271,2.2271,0,0,1-.7305-.49,1.8339,1.8339,0,0,1-.4316-.6709,3.6768,3.6768,0,0,1-.1875-.9824c-.0273-.3995-.042-.9141-.0381-1.5459-.0039-.63.0108-1.1455.0381-1.544a3.6365,3.6365,0,0,1,.1875-.9814,1.8221,1.8221,0,0,1,.4316-.6719,2.2117,2.2117,0,0,1,.7305-.49,2.3277,2.3277,0,0,1,.8809-.1651,2.1657,2.1657,0,0,1,1.4531.5108,2.4752,2.4752,0,0,1,.7607,1.3769h1.0225a3.4537,3.4537,0,0,0-1.1074-2.0429,3.2087,3.2087,0,0,0-2.1289-.7354,3.5486,3.5486,0,0,0-1.3145.2412,3.1014,3.1014,0,0,0-1.0205.6748,2.8244,2.8244,0,0,0-.6279.9082,3.8958,3.8958,0,0,0-.2539,1.1729c-.0352.4609-.0518,1.042-.045,1.7461-.0068.7041.01,1.2861.045,1.748a3.8964,3.8964,0,0,0,.2539,1.1719,2.789,2.789,0,0,0,.6279.9072,3.0269,3.0269,0,0,0,1.0205.6748,3.4889,3.4889,0,0,0,1.3145.2422,3.2163,3.2163,0,0,0,2.125-.7353,3.461,3.461,0,0,0,1.1113-2.043Z"/><polygon class="cls-2" points="341.925 93.582 341.925 92.693 337.129 92.693 337.129 89.324 341.218 89.324 341.218 88.435 337.129 88.435 337.129 85.143 341.925 85.143 341.925 84.254 336.134 84.254 336.134 93.582 341.925 93.582 341.925 93.582"/><path class="cls-2" d="M354.164,91.0166a2.6068,2.6068,0,0,0-.206-1.0459,2.2088,2.2088,0,0,0-.5782-.79,2.153,2.153,0,0,0-.68-.4278,4.69,4.69,0,0,0-1.0117-.24l-1.0908-.1709a3.453,3.453,0,0,1-.6826-.18,1.8,1.8,0,0,1-.5342-.3047,1.0969,1.0969,0,0,1-.3183-.4658,1.8082,1.8082,0,0,1-.1026-.6231,1.6507,1.6507,0,0,1,.5176-1.2646,2.1387,2.1387,0,0,1,1.4629-.4785,3.3917,3.3917,0,0,1,1.24.2051,2.813,2.813,0,0,1,.9356.6074l.6406-.6416a3.9837,3.9837,0,0,0-1.2383-.7764,4.3361,4.3361,0,0,0-1.5391-.2451,3.2392,3.2392,0,0,0-2.1875.7158,2.4668,2.4668,0,0,0-.8,1.9033,2.578,2.578,0,0,0,.1846,1.0079,2.0653,2.0653,0,0,0,.5352.7509,2.6624,2.6624,0,0,0,.7343.4463,4.298,4.298,0,0,0,.9707.2608l1.086.1572a4,4,0,0,1,.7519.1689,1.3512,1.3512,0,0,1,.4688.29,1.2446,1.2446,0,0,1,.3457.499,1.8179,1.8179,0,0,1,.1152.667,1.54,1.54,0,0,1-.5937,1.2773,2.6243,2.6243,0,0,1-1.6231.4541,3.8184,3.8184,0,0,1-1.3769-.2158,3.2881,3.2881,0,0,1-1.166-.7939l-.668.6679a3.888,3.888,0,0,0,1.3945.9434,4.9067,4.9067,0,0,0,1.7891.2871,3.6582,3.6582,0,0,0,2.3437-.71,2.4059,2.4059,0,0,0,.88-1.9355Z"/><path class="cls-2" d="M.871,15.1172q-.435.1786-.871.3574s.227-.0449.6352-.13c15.1392-3.083,24.0264-5.582,40.9063-6.0771a207.3488,207.3488,0,0,1,31.1362,1.584,292.759,292.759,0,0,0,30.1079,2.5849,126.206,126.206,0,0,0,23.5078-1.4941c11.457-1.9639,20.4712-6.0293,26.0972-10.8916Q152.9831.5351,153.541,0c-2.6763.7871-5.1817,1.5752-7.6651,2.3179a133.2062,133.2062,0,0,1-34.8423,5.7173c-11.2016.38-21.788-.9678-32.6562-2.2256-17.3237-2.0049-32.1392-2.3125-49.1958.8418A140.39,140.39,0,0,0,.871,15.1172Z"/><path class="cls-1" d="M244.0654,74.1064,222.7236,15.8935h-5.2344L196.0654,74.1064h6.623l4.66-13.167h25.4336l4.66,13.167Zm-13.084-18.5537h-21.752l10.959-30.747,10.793,30.747Z"/><path class="cls-1" d="M309.4189,74.1064,299.11,54.3965a11.2536,11.2536,0,0,0,9.4522-11.65q-.0924-5.6851-3.5967-8.8555a13.4593,13.4593,0,0,0-9.2715-3.2236H279.0361V74.1064h4.6308V54.8242h10.44l9.8857,19.2822Zm-5.4844-31.3007a7.4956,7.4956,0,0,1-2.4355,5.96,9.3868,9.3868,0,0,1-6.2324,1.9756h-11.6V34.8086h11.6a9.3283,9.3283,0,0,1,6.2324,2.0068,7.5848,7.5848,0,0,1,2.4355,5.99Z"/><path class="cls-1" d="M133.5444,74.1064,117.895,31.4228h-3.836l-15.71,42.6836h4.8569l3.417-9.6543h18.6479l3.4166,9.6543Zm-9.5928-13.6035H108.0029l8.0337-22.5439,7.915,22.5439Z"/></svg>