<svg class="nav-logo" xmlns="http://www.w3.org/2000/svg" viewBox="0 0 85.1852 46.4238"><path class="nav-logo filter" d="M.4763,46.0664Q.2384,46.245,0,46.4238s.1241-.0449.3474-.13c8.279-3.083,13.1391-5.582,22.37-6.0771a62.7742,62.7742,0,0,1,17.0273,1.584A89.9532,89.9532,0,0,0,56.21,44.3857a38.4829,38.4829,0,0,0,12.8555-1.4941A26.1159,26.1159,0,0,0,83.3368,32q.3241-.5157.6292-1.0508c-1.4636.7871-2.8337,1.5752-4.1918,2.3179A43.9605,43.9605,0,0,1,60.72,38.9844c-6.1257.38-11.915-.9678-17.8585-2.2256-9.4737-2.0049-17.5757-2.3125-26.9034.8418A54.9229,54.9229,0,0,0,.4763,46.0664Z"/><path class="nav-logo filter" d="M.4763,30.5918Q.2384,30.77,0,30.9492s.1241-.0449.3474-.13c8.279-3.083,13.1391-5.582,22.37-6.0771a62.7742,62.7742,0,0,1,17.0273,1.584A89.9532,89.9532,0,0,0,56.21,28.9111,38.4829,38.4829,0,0,0,69.0652,27.417,26.1159,26.1159,0,0,0,83.3368,16.5254q.3241-.5157.6292-1.0508c-1.4636.7871-2.8337,1.5752-4.1918,2.3179A43.9605,43.9605,0,0,1,60.72,23.51c-6.1257.38-11.915-.9678-17.8585-2.2256-9.4737-2.0049-17.5757-2.3125-26.9034.8418A54.9229,54.9229,0,0,0,.4763,30.5918Z"/>path class="nav-logo filter" d="M1.6955,15.1172q-.2378.1786-.4763.3574s.1242-.0449.3474-.13c8.2791-3.083,13.1392-5.582,22.37-6.0771a62.7735,62.7735,0,0,1,17.0272,1.584,89.9532,89.9532,0,0,0,16.4649,2.5849,38.4838,38.4838,0,0,0,12.8556-1.4941A26.1166,26.1166,0,0,0,84.5561,1.0508Q84.88.5351,85.1852,0c-1.4636.7871-2.8337,1.5752-4.1918,2.3179a43.96,43.96,0,0,1-19.054,5.7173c-6.1257.38-11.915-.9678-17.8584-2.2256-9.4737-2.0049-17.5758-2.3125-26.9034.8418A54.9221,54.9221,0,0,0,1.6955,15.1172Z"/></svg>
